# xmcd
#
# Track frame offsets:
#	150
#	14500
#	36650
#	52562
#	75612
#	83637
#	101250
#	121112
#	133675
#	149937
#
# Disc length: 2218 seconds
#
# Revision: 2
# Processed by: cddbd v1.5.2PL0 Copyright (c) Steve Scherf et al.
# Submitted via: audiograbber 1.83.01
#
DISCID=7e08a80a
DTITLE=Mike Bloomfield - Living In The Fast Lane
DYEAR=1981
DGENRE=Blues
TTITLE0=Maudie
TTITLE1=Shine Of Love
TTITLE2=Roots
TTITLE3=Let Them Talk
TTITLE4=Watkin's Rag
TTITLE5=Andy's Bad
TTITLE6=When I Get Home
TTITLE7=Used To It
TTITLE8=Big C Blues
TTITLE9=Dizz Rag
EXTD=
EXTT0=
EXTT1=
EXTT2=
EXTT3=
EXTT4=
EXTT5=
EXTT6=
EXTT7=
EXTT8=
EXTT9=
PLAYORDER=
